<svg xmlns="http://www.w3.org/2000/svg" viewBox="0 0 400 400" fill="none">
  <defs>
    <linearGradient id="gold" x1="0" y1="0" x2="1" y2="1">
      <stop offset="0%" stop-color="#C9A84C"/>
      <stop offset="100%" stop-color="#D4BC6A"/>
    </linearGradient>
    <linearGradient id="navy" x1="0" y1="0" x2="1" y2="1">
      <stop offset="0%" stop-color="#0A1B3F"/>
      <stop offset="100%" stop-color="#060F26"/>
    </linearGradient>
  </defs>
  <rect x="20" y="60" width="360" height="300" rx="30" fill="url(#navy)" stroke="url(#gold)" stroke-width="6"/>
  <path d="M200 100 L200 320" stroke="url(#gold)" stroke-width="4" stroke-dasharray="8 6"/>
  <path d="M80 210 L320 210" stroke="url(#gold)" stroke-width="4" stroke-dasharray="8 6"/>
  <circle cx="200" cy="210" r="80" fill="none" stroke="url(#gold)" stroke-width="4"/>
  <circle cx="200" cy="210" r="30" fill="url(#gold)"/>
  <polygon points="200,120 220,190 200,180 180,190" fill="url(#gold)" opacity="0.6"/>
  <polygon points="200,300 180,230 200,240 220,230" fill="url(#gold)" opacity="0.6"/>
  <polygon points="120,210 190,190 180,210 190,230" fill="url(#gold)" opacity="0.6"/>
  <polygon points="280,210 210,190 220,210 210,230" fill="url(#gold)" opacity="0.6"/>
  <text x="200" y="380" text-anchor="middle" font-family="Georgia, serif" font-size="22" fill="url(#gold)" font-weight="bold" letter-spacing="6">INVICTA</text>
</svg>
